<svg width="76" height="72" viewBox="0 0 76 72" fill="none" xmlns="http://www.w3.org/2000/svg">
<path d="M69.5566 62.6871C69.2411 61.0215 68.2714 59.5513 66.8631 58.6069C65.4554 57.6618 63.7279 57.3204 62.0667 57.66V35.2577L64.3378 37.5288C65.8815 39.0725 68.3852 39.0725 69.9289 37.5288C71.4727 35.985 71.4727 33.4814 69.9289 31.9376L62.0667 24.0754V8.1332C63.4657 8.1332 64.6 6.99889 64.6 5.59987V3.06654C64.6 1.66751 63.4657 0.533203 62.0667 0.533203H49.4C48.001 0.533203 46.8667 1.66751 46.8667 3.06654V5.59987C46.8667 6.99889 48.001 8.1332 49.4 8.1332V11.4087L40.6867 2.69544C39.1832 1.26055 36.8168 1.26055 35.3133 2.69544L6.07109 31.9376C4.52734 33.4814 4.52734 35.985 6.07109 37.5288C7.61484 39.0725 10.1185 39.0725 11.6622 37.5288L13.9333 35.2577V61.8169C12.5541 60.2168 10.3232 59.6453 8.34466 60.3857C6.36549 61.1254 5.05739 63.0204 5.06667 65.1332C2.26862 65.1332 0 67.4018 0 70.1999C0 70.8994 0.567155 71.4665 1.26667 71.4665H74.7333C75.4328 71.4665 76 70.8994 76 70.1999C75.9951 66.4506 73.2613 63.2629 69.5566 62.6871V62.6871ZM58.2568 60.1185C58.2568 60.1006 58.2667 60.0857 58.2667 60.0665V52.4665C58.2667 51.767 57.6995 51.1999 57 51.1999H49.4C48.7005 51.1999 48.1333 51.767 48.1333 52.4665V60.0665C48.1333 60.766 48.7005 61.3332 49.4 61.3332H57C57.2307 61.327 57.4552 61.2565 57.6476 61.1291C57.227 61.9808 57.0056 62.9172 57 63.8665V63.9933C54.518 64.5073 52.5803 66.45 52.0725 68.9332H46.8667V49.9332C46.8667 49.2337 46.2995 48.6665 45.6 48.6665H30.4C29.7005 48.6665 29.1333 49.2337 29.1333 49.9332V68.9332H21.4208C20.9563 66.2174 19.0618 63.9643 16.4667 63.0409V33.4665H59.5333V58.8326C59.0478 59.1976 58.618 59.6305 58.2568 60.1185ZM55.7333 53.7332V58.7999H50.6667V53.7332H55.7333ZM49.4 3.06654H62.0667V5.59987H49.4V3.06654ZM51.9333 8.1332H59.5333V21.5421L51.9333 13.9421V8.1332ZM9.87109 35.7376C9.31631 36.2924 8.41702 36.2924 7.86224 35.7376C7.30745 35.1828 7.30745 34.2836 7.86224 33.7288L37.1044 4.48659C37.5992 3.9918 38.4008 3.9918 38.8956 4.48659L68.1378 33.7288C68.6925 34.2836 68.6925 35.1828 68.1378 35.7376C67.583 36.2924 66.6837 36.2924 66.1289 35.7376L40.6867 10.2954C39.203 8.81169 36.797 8.81169 35.3133 10.2954L9.87109 35.7376ZM37.1044 12.0866C37.5992 11.5918 38.4008 11.5918 38.8956 12.0866L57.7422 30.9332H18.2578L37.1044 12.0866ZM2.87412 68.9332C3.54085 67.7847 4.98441 67.3493 6.175 67.9374C6.66175 68.1774 7.24684 68.0809 7.63031 67.6968C8.01439 67.3134 8.11087 66.7283 7.8709 66.2415C7.69648 65.8977 7.60371 65.5185 7.6 65.1332C7.59443 63.8968 8.48506 62.8392 9.7041 62.6339C10.9231 62.4285 12.1113 63.1361 12.5108 64.3063C12.6945 64.8326 13.201 65.1777 13.7583 65.1548C13.8177 65.1555 13.8764 65.148 13.9333 65.1332C16.2428 65.1369 18.259 66.698 18.8404 68.9332H2.87412ZM31.6667 68.9332V51.1999H44.3333V68.9332H31.6667ZM54.6831 68.9332C55.2027 67.4358 56.6035 66.4234 58.1881 66.3999C58.2314 66.3999 58.3576 66.419 58.4009 66.4203C58.8017 66.432 59.1851 66.2576 59.4393 65.9478C59.6917 65.6342 59.7795 65.2192 59.6762 64.8308C59.5865 64.5166 59.5389 64.1925 59.5333 63.8665C59.5333 61.768 61.2348 60.0665 63.3333 60.0665C65.4319 60.0665 67.1333 61.768 67.1333 63.8665C67.1333 64.566 67.7005 65.1332 68.4 65.1332C70.7094 65.1369 72.7257 66.698 73.3071 68.9332H54.6831Z" fill="#5D62B5"/>
</svg>
